PathFileType	4	(X/Y/Z)	36_1_rein_2_p0_0-372_filt_butterworth.trc
DataRate	CameraRate	NumFrames	NumMarkers	Units	OrigDataRate	OrigDataStartFrame	OrigNumFrames
60.0	60.0	7	27	m	60.0	325	372
Frame#	Time	RHip			RKnee			RAnkle			RBigToe			RSmallToe			RHeel			LHip			LKnee			LAnkle			LBigToe			LSmallToe			LHeel			Neck			Head			Nose			RShoulder			RElbow			RWrist			RThumb			RIndex			RPinky			LShoulder			LElbow			LWrist			LThumb			LIndex			LPinky			
		X1	Y1	Z1	X2	Y2	Z2	X3	Y3	Z3	X4	Y4	Z4	X5	Y5	Z5	X6	Y6	Z6	X7	Y7	Z7	X8	Y8	Z8	X9	Y9	Z9	X10	Y10	Z10	X11	Y11	Z11	X12	Y12	Z12	X13	Y13	Z13	X14	Y14	Z14	X15	Y15	Z15	X16	Y16	Z16	X17	Y17	Z17	X18	Y18	Z18	X19	Y19	Z19	X20	Y20	Z20	X21	Y21	Z21	X22	Y22	Z22	X23	Y23	Z23	X24	Y24	Z24	X25	Y25	Z25	X26	Y26	Z26	X27	Y27	Z27	
325	5.416666666666667	0.3345676255258011	0.7749390465711163	0.6701407463394119	0.36122259308950183	0.3148149926945767	0.7285116525796821	0.38081437097260334	-0.05729527335896689	0.7277618615176852	0.34964380391609995	-0.061469201112519724	0.547124433088352	0.4094048093133372	-0.05408729975171901	0.5584292518156526	0.35520720917326076	-0.1378840341257572	0.8039258261873842	0.14294355193864208	0.7502778900595994	0.6715539417714353	0.14407386664440444	0.3079249729777712	0.7159324200860008	0.1692373996451851	-0.09468095550697192	0.710018377107867	0.1927247600155339	-0.046521499998099035	0.5232957779817365	0.1328679438424698	-0.07157099636572664	0.5618087798071096	0.17689329350602684	-0.14317203078801516	0.7442556845630888	0.1882783543549959	1.2654794603674877	0.7351705828146466	0.16727924600573124	1.506781181599245	0.7171152905750464	0.18413199801873306	1.3938443160338387	0.6006085694637067	0.3342298577575678	1.184105013949561	0.7367754911931246	0.4163672721268087	0.9634119278133352	0.78046167196904	0.3849125015200924	0.8247565668207115	0.8201428419022878	0.32069349058387514	0.8196708246925671	0.7675386716065008	0.28409875354818787	0.7446780282230434	0.8579297515128586	0.29712860981850486	0.7246812634839862	0.8772859071117339	0.03266015934411429	1.1567102169181485	0.7416921153619291	-0.010606535050602309	0.9245605993155438	0.782921081450609	0.08402146924352347	0.7761787212579856	0.7665158781204404	0.14379543940257622	0.7658424005374631	0.7223584117801635	0.1521194405072142	0.7701439008043907	0.7059485350944202	0.15271131150352424	0.7577619228072777	0.7242922186785505	
326	5.433333333333334	0.3341734493885384	0.7744228799378999	0.6696055631148393	0.36081733459413573	0.31499462941195566	0.7284871450965462	0.3804978021737248	-0.05800175727986685	0.7293199029438683	0.3483703456382491	-0.05974473262315526	0.5446710441021652	0.4093525322176021	-0.05423394452133103	0.5585021543449114	0.3550528456382473	-0.13707153918924428	0.8039612871433846	0.14256585443372616	0.7500775943622353	0.6714199311113428	0.14395825590034844	0.3075672880632789	0.7157072843667838	0.16907598426472084	-0.09465041808890844	0.7101132192887762	0.19321626989831153	-0.0481167725903333	0.5251391027024117	0.13316132604952724	-0.07092304439816208	0.5611191864122274	0.17683741878411288	-0.1433112510256721	0.744370722446963	0.18827568239838927	1.2654798339696065	0.7351613936105929	0.1660498379962645	1.5070519856779507	0.7145389889207284	0.18431390455782748	1.3937342854192516	0.6008769105958964	0.3342165308203304	1.184098268477264	0.736809349313846	0.4151111265537647	0.9642067814481008	0.7813057195679829	0.38660993594911486	0.8262028750634723	0.8199111869205419	0.3194984959715061	0.8220847236266362	0.7668827888943952	0.2827646088344919	0.7466061611454575	0.8575540353548016	0.2974532313124713	0.7291556567583655	0.870731390446509	0.03266006953208793	1.1567558830467943	0.7416820208750571	-0.010888807481849923	0.9238376361142823	0.7876594904969498	0.08216920017984014	0.7749982382349597	0.7684221739557853	0.1421863275535054	0.7649351679333629	0.7247217484589985	0.1500415240753006	0.7710695840290536	0.7065519931408744	0.15172046946975554	0.7562448161808069	0.7316619542034359	
327	5.45	0.33388206666227177	0.7738467058265637	0.6691897676236134	0.3603312827280312	0.3152047832498536	0.7284306381546034	0.38029350943936535	-0.05857183808124243	0.7306828318956562	0.34686922463288705	-0.057717395629899665	0.5417722069089039	0.40951425419614773	-0.053232650366152864	0.5571650638459948	0.3548763272652812	-0.1362221392987413	0.8039524220184147	0.14219541830565652	0.7498979922506909	0.6711933374054736	0.14392285489511636	0.3074734622103446	0.7155050424630504	0.16890735299833398	-0.09425094447288801	0.7100615516854725	0.19353392084248094	-0.04840679768126223	0.5261902313936545	0.13323368101937927	-0.07050836543468075	0.5612680183322727	0.17684176665177673	-0.14337034568690155	0.7445349056292407	0.18827774205900777	1.265482570016296	0.7351503112373594	0.16514587809629122	1.5072081520637606	0.7121661541774288	0.18444152619667048	1.393656356085493	0.6010991654517341	0.33421789349499464	1.1840935978354987	0.736850630562638	0.41298592329969563	0.9650546396886819	0.7826650775688613	0.3890367008249183	0.8280282628731237	0.8147733813090394	0.31968553678086165	0.8236736327247661	0.764447080491382	0.2830192405105299	0.7489837503938125	0.8527912027073965	0.2985310779793378	0.7343901465897761	0.8612701949512349	0.0324005405006219	1.1571035825558176	0.740383284799926	-0.010924901543660579	0.9230065380591941	0.790859569873926	0.08093122634398217	0.7738942806931691	0.7692864477371434	0.14097651978559514	0.7635502308519843	0.7270585352360883	0.14861517150736228	0.7710980045838842	0.7081168792686643	0.1506132532344645	0.7544187721918678	0.7401264627003765	
328	5.466666666666667	0.33360885627248027	0.7733754735712042	0.6687489057189034	0.3598042121240694	0.3154293455560397	0.7283574035337326	0.38022585311821666	-0.05891812661755781	0.7317840323505175	0.34559043816154356	-0.05599142579304261	0.539391227496304	0.4100413237654638	-0.051360333509444064	0.5546223757014761	0.35470825247138793	-0.13532765324483578	0.8039091027824212	0.14183753268944235	0.7498725181425289	0.6708283256112497	0.1438947367806922	0.30765078375510935	0.7153512810229794	0.16867661715280255	-0.09344797773475158	0.7097173252495865	0.19362190537088564	-0.04776080047325938	0.5263586190910307	0.13321986988473372	-0.0703070187521486	0.5617399827621425	0.176910158122759	-0.1432783187423607	0.7447364329652645	0.18828145832155094	1.2654889576065664	0.735138540322116	0.16465507956908712	1.507310860504026	0.7103457668856608	0.18440456283602605	1.3936635375035662	0.6008829779345628	0.3342326702664399	1.1840853485941256	0.7369118738391314	0.41025777546653175	0.9658624936637872	0.784442218600689	0.391296644289351	0.8290654953706721	0.8071873110230177	0.3208234242514779	0.8230983569599506	0.7622299139263544	0.2842560995818421	0.7503659356889317	0.8466593575102339	0.30091386139463344	0.7392924315039759	0.8506209648513738	0.031952565916945536	1.157661109074248	0.7381585025996777	-0.010762688450553747	0.9220905434780744	0.7923961751707091	0.08016332097869548	0.7727957962902875	0.7688773385803219	0.14052881870218836	0.7624475306525955	0.7286229225288925	0.1477809751508219	0.7696526322636678	0.7112940917298372	0.14920287549984004	0.7517481702469035	0.7494508158520208	
329	5.483333333333333	0.3333614422485781	0.7731510023241249	0.6681866857127977	0.3593182379978251	0.31569483600609843	0.7283009292267664	0.38031151475327124	-0.05896779661294789	0.7325087035742572	0.3448726711070844	-0.055102698797002546	0.538413376640033	0.4108848242896176	-0.04925673232941652	0.5515117104607223	0.3545962451236771	-0.13439124748957115	0.8038565963666846	0.1414952220950312	0.7501069628856857	0.6703833281151005	0.14379286584641143	0.30802058813564454	0.7152449276148874	0.16832757128552162	-0.09231491943446074	0.7090565135314826	0.19351865632254395	-0.04670652576622749	0.5259462765433601	0.13327051826215777	-0.07029346355347166	0.5618888039959514	0.17698797004686448	-0.1429658856360789	0.7449031511483911	0.18828357128206225	1.26549905806921	0.7351271643844323	0.16451847412658732	1.5073816753307678	0.709311015961856	0.1841476914404537	1.393795369253421	0.5999681976634814	0.33425364209110364	1.1840704940373055	0.7369934420126005	0.4073638963053698	0.9665655466102785	0.7860873324697646	0.3924325568949273	0.8279819155052908	0.8000446434146753	0.3207231571851499	0.8179920189814703	0.7649317857029719	0.28455323090260276	0.7487471646863155	0.8442796129791559	0.30422086241187996	0.742046434377134	0.8412041504677328	0.03146093361865629	1.1582494925169264	0.7357490289860202	-0.010560528205023914	0.9210562118327442	0.7929226138435835	0.07954128365563612	0.771385498726882	0.7676512018475934	0.14077298287364803	0.7616226891664092	0.729616018592161	0.14708363364799568	0.76575765624836	0.7167957356929615	0.1472502626268097	0.747392870866296	0.7594881385695551	
330	5.5	0.3332255661891115	0.7731965862650682	0.6674960553626921	0.3589300808982959	0.31603903238756437	0.7282834412967158	0.3805233404806493	-0.05873450440189165	0.7328125708486594	0.3448341562444126	-0.05523935705356349	0.5391425826550269	0.41187503161655137	-0.04763634359259871	0.5486745737899561	0.3545814235069017	-0.13345652139473543	0.803825103383216	0.14117798739884682	0.7505981832341482	0.6700371305452298	0.14358832645024136	0.3084823057833845	0.7151599858279319	0.16786682172512885	-0.09093628462802728	0.7082837961991291	0.19336991698791556	-0.04564991724398905	0.5256023031459395	0.13344355381247153	-0.07049912072856841	0.5614794108030287	0.177009724256676	-0.1424312349844108	0.744963047488763	0.18828287369333188	1.2655115497114156	0.7351170795620786	0.16458132606927262	1.507407835000366	0.7090494697823134	0.18368709580411874	1.394049692222883	0.598378019320284	0.3342728942347366	1.1840477311436581	0.7370875459409911	0.4047941578148936	0.9670954208193123	0.7869402914806809	0.3919326108894938	0.8241608901474451	0.79541594901667	0.3165344832030437	0.8055061256824998	0.7771731017485237	0.2820921075740627	0.7421042117995816	0.8491057622842174	0.3071306255233408	0.7408041799811407	0.8339847040201769	0.031078963957430275	1.1586819338525258	0.7339419803415836	-0.010487012946899358	0.9197945527186427	0.7933264604757282	0.07884283471135897	0.7692195780418373	0.7665700893728868	0.14084641599336623	0.7593247920622842	0.7315466500924773	0.1459825427002167	0.7582056699153081	0.7249646964511526	0.14456459207235886	0.7405854357319696	0.7693453662149143	
331	5.516666666666667	0.33325698103603935	0.7734191099110681	0.6667916192330565	0.3586130100374368	0.31645460934327574	0.7282949750622166	0.3807913976940655	-0.058353494745501513	0.7328430492278495	0.3453444430614726	-0.05612580227759489	0.5411707729714698	0.41282582228166337	-0.04688453285626278	0.5466528698724281	0.35469565679266724	-0.13261125680293756	0.8038524002308722	0.14090201012493714	0.7512335630706811	0.669957855377501	0.1432887801219516	0.30901373736493776	0.7150598760606491	0.167361074610753	-0.0894012122274674	0.7076874887772837	0.19336910195781756	-0.04494843055056816	0.5259174517525429	0.1337542243588959	-0.07104835792222707	0.5608719009878815	0.17693862631209809	-0.14170959011058284	0.744900544111214	0.18827985185999443	1.2655243707603552	0.7351092915044668	0.16469517121708643	1.5073956955485324	0.709257373490914	0.18308587938774823	1.3943938055467708	0.5963296710604818	0.33428662423199956	1.184015993940536	0.7371895725348884	0.40296981610606697	0.9673778077634227	0.7867607376506084	0.3899876118876697	0.8178214172320732	0.7942859079024103	0.307029349397742	0.7837134779915557	0.7989158215484486	0.2767334820902249	0.7289124778376858	0.860079860644772	0.3085235677604895	0.7343395044138732	0.8281417743788717	0.03085811246797452	1.1588975162068966	0.7330087524587607	-0.01058418746821856	0.9183562651290077	0.7937383278251167	0.07807481327450225	0.7660497323085281	0.766365884071051	0.13960496712468667	0.7530842505264372	0.7360983094396885	0.14397934660851203	0.7462194431353625	0.7353834134036423	0.140902491617176	0.7308449552634182	0.7778399383255203	
